<svg xmlns="http://www.w3.org/2000/svg" version="1.1" xmlns:xlink="http://www.w3.org/1999/xlink" xmlns:svgjs="http://svgjs.dev/svgjs" width="1000" height="623" viewBox="0 0 1000 623"><g transform="matrix(1,0,0,1,-0.6060606060606233,0.25222672064785456)"><svg viewBox="0 0 396 247" data-background-color="#ffffff" preserveAspectRatio="xMidYMid meet" height="623" width="1000" xmlns="http://www.w3.org/2000/svg" xmlns:xlink="http://www.w3.org/1999/xlink"><g id="tight-bounds" transform="matrix(1,0,0,1,0.2400000000000091,-0.09999999999999432)"><svg viewBox="0 0 395.52 247.2" height="247.2" width="395.52"><g><svg></svg></g><g><svg viewBox="0 0 395.52 247.2" height="247.2" width="395.52"><g mask="url(#b3334012-ba97-4907-ad43-2f2f79c9097b)"><g><path xmlns="http://www.w3.org/2000/svg" d="M246.501 247.2v-3.679h1.839c5.886 0 8.829-2.698 8.829-8.092v0c0-1.962-0.368-4.046-1.104-6.254v0l-33.107-89.389h-64.375l-32.003 87.918c-0.736 1.962-1.104 3.801-1.104 5.517v0c0 3.188 0.858 5.69 2.575 7.505 1.717 1.864 3.556 2.796 5.518 2.795v0h1.839v3.679h-40.832v-3.679h1.839c3.188 0 6.327-1.913 9.418-5.738 3.041-3.777 5.542-8.24 7.504-13.39v0l84.239-224.393 82.4 222.186c1.717 4.905 4.12 9.687 7.21 14.346 3.041 4.66 7.014 6.989 11.919 6.989v0h1.839v3.679zM190.587 50.396l-28.325 76.883h56.65z" fill="#ed2326" fill-rule="nonzero" stroke="none" stroke-width="1" stroke-linecap="butt" stroke-linejoin="miter" stroke-miterlimit="10" stroke-dasharray="" stroke-dashoffset="0" font-family="none" font-weight="none" font-size="none" text-anchor="none" style="mix-blend-mode: normal" data-fill-palette-color="tertiary"></path></g></g><g transform="matrix(1,0,0,1,74.9284974093264,37.08)"><svg viewBox="0 0 245.6630051813472 173.04" height="173.04" width="245.6630051813472"><g><svg viewBox="0 0 245.6630051813472 173.04" height="173.04" width="245.6630051813472"><g><svg viewBox="0 0 245.6630051813472 173.04" height="173.04" width="245.6630051813472"><g><svg viewBox="0 0 245.6630051813472 173.04" height="173.04" width="245.6630051813472"><g id="textblocktransform"><svg viewBox="0 0 245.6630051813472 173.04" height="173.04" width="245.6630051813472" id="textblock"><g><svg viewBox="0 0 245.6630051813472 173.04" height="173.04" width="245.6630051813472"><g transform="matrix(1,0,0,1,0,0)"><svg width="245.6630051813472" viewBox="-2.300000011920929 -36.599998474121094 55.79999923706055 39.599998474121094" height="173.04" data-palette-color="#4790fc"><path d="M21.35 0L21.35-0.5 21.6-0.5Q22.8-0.5 22.8-1.6L22.8-1.6Q22.8-2 22.65-2.45L22.65-2.45 18.15-14.6 9.4-14.6 5.05-2.65Q4.9-2.25 4.9-1.9L4.9-1.9Q4.9-1.25 5.25-0.88 5.6-0.5 6-0.5L6-0.5 6.25-0.5 6.25 0 0.7 0 0.7-0.5 0.95-0.5Q1.6-0.5 2.23-1.28 2.85-2.05 3.25-3.1L3.25-3.1 14.7-33.6 25.9-3.4Q26.25-2.4 26.88-1.45 27.5-0.5 28.5-0.5L28.5-0.5 28.75-0.5 28.75 0 21.35 0ZM13.75-26.75L9.9-16.3 17.6-16.3 13.75-26.75ZM38.5 0L31.95 0 31.95-0.5Q32.35-0.5 32.65-0.8 32.95-1.1 33.17-1.5 33.4-1.9 33.5-2.38 33.6-2.85 33.6-3.25L33.6-3.25 33.6-28.85Q33.6-29.7 33.35-30.45 33.1-31.2 31.85-31.25L31.85-31.25 31.85-31.75 36.9-33.3 36.9-3.25Q36.9-2.85 37-2.38 37.1-1.9 37.32-1.5 37.55-1.1 37.82-0.8 38.1-0.5 38.5-0.5L38.5-0.5 38.5 0ZM50.5 0L44 0 44-0.5Q44.4-0.5 44.7-0.8 45-1.1 45.2-1.5 45.4-1.9 45.5-2.38 45.59-2.85 45.59-3.25L45.59-3.25 45.59-17.1Q45.59-17.95 45.34-18.73 45.09-19.5 43.9-19.55L43.9-19.55 43.9-20 48.9-21.6 48.9-3.25Q48.9-2.85 49-2.38 49.09-1.9 49.3-1.5 49.5-1.1 49.8-0.8 50.09-0.5 50.5-0.5L50.5-0.5 50.5 0ZM44.25-26.4L44.25-26.4Q44.25-27.4 44.92-28.1 45.59-28.8 46.59-28.8L46.59-28.8Q47.59-28.8 48.3-28.1 49-27.4 49-26.4L49-26.4Q49-25.4 48.3-24.75 47.59-24.1 46.59-24.1L46.59-24.1Q45.59-24.1 44.92-24.75 44.25-25.4 44.25-26.4Z" opacity="1" transform="matrix(1,0,0,1,0,0)" fill="#4790fc" class="undefined-text-0" data-fill-palette-color="primary" id="text-0"></path></svg></g></svg></g></svg></g></svg></g></svg></g></svg></g></svg></g></svg></g><defs><mask id="b3334012-ba97-4907-ad43-2f2f79c9097b"><rect width="395.52" height="247.2" fill="white"></rect><g transform="matrix(1,0,0,1,74.9284974093264,37.08)" id="clone"><svg viewBox="0 0 245.6630051813472 173.04" height="173.04" width="245.6630051813472"><g><svg viewBox="0 0 245.6630051813472 173.04" height="173.04" width="245.6630051813472"><g><svg viewBox="0 0 245.6630051813472 173.04" height="173.04" width="245.6630051813472"><g><svg viewBox="0 0 245.6630051813472 173.04" height="173.04" width="245.6630051813472"><g id="SvgjsG1562"><svg viewBox="0 0 245.6630051813472 173.04" height="173.04" width="245.6630051813472" id="SvgjsSvg1561"><g><svg viewBox="0 0 245.6630051813472 173.04" height="173.04" width="245.6630051813472"><g transform="matrix(1,0,0,1,0,0)"><svg width="245.6630051813472" viewBox="-2.300000011920929 -36.599998474121094 55.79999923706055 39.599998474121094" height="173.04" data-palette-color="#4790fc"><path d="M21.35 0L21.35-0.5 21.6-0.5Q22.8-0.5 22.8-1.6L22.8-1.6Q22.8-2 22.65-2.45L22.65-2.45 18.15-14.6 9.4-14.6 5.05-2.65Q4.9-2.25 4.9-1.9L4.9-1.9Q4.9-1.25 5.25-0.88 5.6-0.5 6-0.5L6-0.5 6.25-0.5 6.25 0 0.7 0 0.7-0.5 0.95-0.5Q1.6-0.5 2.23-1.28 2.85-2.05 3.25-3.1L3.25-3.1 14.7-33.6 25.9-3.4Q26.25-2.4 26.88-1.45 27.5-0.5 28.5-0.5L28.5-0.5 28.75-0.5 28.75 0 21.35 0ZM13.75-26.75L9.9-16.3 17.6-16.3 13.75-26.75ZM38.5 0L31.95 0 31.95-0.5Q32.35-0.5 32.65-0.8 32.95-1.1 33.17-1.5 33.4-1.9 33.5-2.38 33.6-2.85 33.6-3.25L33.6-3.25 33.6-28.85Q33.6-29.7 33.35-30.45 33.1-31.2 31.85-31.25L31.85-31.25 31.85-31.75 36.9-33.3 36.9-3.25Q36.9-2.85 37-2.38 37.1-1.9 37.32-1.5 37.55-1.1 37.82-0.8 38.1-0.5 38.5-0.5L38.5-0.5 38.5 0ZM50.5 0L44 0 44-0.5Q44.4-0.5 44.7-0.8 45-1.1 45.2-1.5 45.4-1.9 45.5-2.38 45.59-2.85 45.59-3.25L45.59-3.25 45.59-17.1Q45.59-17.95 45.34-18.73 45.09-19.5 43.9-19.55L43.9-19.55 43.9-20 48.9-21.6 48.9-3.25Q48.9-2.85 49-2.38 49.09-1.9 49.3-1.5 49.5-1.1 49.8-0.8 50.09-0.5 50.5-0.5L50.5-0.5 50.5 0ZM44.25-26.4L44.25-26.4Q44.25-27.4 44.92-28.1 45.59-28.8 46.59-28.8L46.59-28.8Q47.59-28.8 48.3-28.1 49-27.4 49-26.4L49-26.4Q49-25.4 48.3-24.75 47.59-24.1 46.59-24.1L46.59-24.1Q45.59-24.1 44.92-24.75 44.25-25.4 44.25-26.4Z" opacity="1" transform="matrix(1,0,0,1,0,0)" fill="#4790fc" class="undefined-text-0" data-fill-palette-color="primary" id="SvgjsPath1560" stroke-width="5" stroke="black" stroke-linejoin="round"></path></svg></g></svg></g></svg></g></svg></g></svg></g></svg></g></svg></g></mask></defs></svg><rect width="395.52" height="247.2" fill="none" stroke="none" visibility="hidden"></rect></g></svg></g></svg>